<?xml version="1.0" encoding="UTF-8" standalone="no"?>
<!DOCTYPE svg PUBLIC "-//W3C//DTD SVG 1.1//EN" "http://www.w3.org/Graphics/SVG/1.1/DTD/svg11.dtd">
<svg xmlns="http://www.w3.org/2000/svg" version="1.1" viewBox="0.00 0.00 1448.00 1448.00">
<g stroke-width="2.00" fill="none" stroke-linecap="butt">
<path stroke="#797878" vector-effect="non-scaling-stroke" d="
  M 543.10 232.44
  C 575.86 296.03 639.65 334.23 710.26 338.19
  C 782.80 342.27 851.87 315.46 894.18 255.09
  C 900.08 246.68 904.44 239.73 907.88 230.94
  A 0.87 0.87 0.0 0 0 906.76 229.81
  C 807.90 267.98 702.04 275.21 599.40 247.93
  Q 571.90 240.62 544.75 230.58
  A 1.33 1.33 0.0 0 0 543.10 232.44"
/>
<path stroke="#807b50" vector-effect="non-scaling-stroke" d="
  M 688.27 476.59
  L 676.61 504.58"
/>
<path stroke="#80363b" vector-effect="non-scaling-stroke" d="
  M 676.61 504.58
  Q 642.42 577.41 593.31 670.56
  Q 569.13 716.44 480.39 889.30"
/>
<path stroke="#807b50" vector-effect="non-scaling-stroke" d="
  M 480.39 889.30
  L 468.26 909.12"
/>
<path stroke="#3d4e21" vector-effect="non-scaling-stroke" d="
  M 468.26 909.12
  C 460.16 918.06 456.25 929.68 467.71 938.08
  Q 477.72 945.41 489.70 951.11
  Q 510.80 961.15 532.63 969.51
  C 605.43 997.38 685.18 1003.37 761.68 989.87
  C 845.41 975.08 912.24 922.96 949.83 847.09"
/>
<path stroke="#616519" vector-effect="non-scaling-stroke" d="
  M 949.83 847.09
  Q 967.24 815.55 975.25 781.48"
/>
<path stroke="#3d4e21" vector-effect="non-scaling-stroke" d="
  M 975.25 781.48
  L 980.92 755.56"
/>
<path stroke="#616519" vector-effect="non-scaling-stroke" d="
  M 980.92 755.56
  Q 988.43 713.73 986.24 671.94"
/>
<path stroke="#3d4e21" vector-effect="non-scaling-stroke" d="
  M 986.24 671.94
  Q 985.13 639.99 978.08 609.95"
/>
<path stroke="#616519" vector-effect="non-scaling-stroke" d="
  M 978.08 609.95
  Q 972.21 581.53 959.34 556.29"
/>
<path stroke="#3d4e21" vector-effect="non-scaling-stroke" d="
  M 959.34 556.29
  Q 912.65 473.61 818.43 457.17
  C 784.75 451.30 749.87 449.32 716.00 454.69
  C 702.99 456.75 687.75 459.97 688.27 476.59"
/>
<path stroke="#9eb33a" vector-effect="non-scaling-stroke" d="
  M 959.34 556.29
  Q 940.51 556.70 932.86 539.84
  C 930.97 535.68 930.00 529.47 928.10 525.45
  C 921.59 511.66 907.75 507.41 893.50 506.26
  C 884.80 505.56 877.60 504.55 870.75 500.23
  C 864.55 496.32 857.28 488.41 852.55 484.21
  Q 833.86 467.65 809.33 476.27
  C 805.66 477.56 801.15 480.50 796.96 480.76
  C 782.21 481.68 774.12 468.12 757.92 472.83
  A 1.64 1.64 0.0 0 0 756.98 475.26
  Q 770.36 497.29 795.47 502.81
  C 805.32 504.98 813.38 501.59 822.57 499.39
  C 840.10 495.18 842.97 511.12 852.85 520.21
  Q 865.77 532.08 884.00 532.58
  Q 891.57 532.78 899.06 533.65
  C 916.34 535.65 909.94 552.98 913.00 564.64
  C 916.11 576.47 925.53 585.82 936.64 590.44
  Q 937.69 590.88 948.20 593.80
  Q 964.63 598.36 978.08 609.95"
/>
<path stroke="#9eb33a" vector-effect="non-scaling-stroke" d="
  M 986.24 671.94
  C 972.12 668.78 953.17 658.54 951.98 641.81
  C 951.06 628.85 945.89 614.31 936.36 605.14
  C 929.69 598.72 920.31 594.70 910.43 590.84
  C 902.80 587.86 897.71 584.96 894.08 577.44
  C 892.26 573.67 891.51 568.22 890.24 564.24
  Q 885.72 550.06 873.95 542.81
  C 862.24 535.59 841.60 530.50 828.64 538.49
  Q 828.22 538.75 828.06 539.23
  C 825.77 545.97 830.32 549.40 836.06 551.17
  C 844.11 553.66 854.88 558.10 860.49 562.83
  C 869.12 570.11 868.45 578.38 869.47 588.73
  C 873.30 627.64 922.06 609.56 925.64 638.68
  C 926.53 645.98 922.89 654.72 922.87 661.41
  C 922.82 678.91 936.95 687.25 949.54 696.02
  C 958.94 702.56 957.18 712.25 956.17 722.83
  C 954.65 738.75 966.13 751.68 980.92 755.56"
/>
<path stroke="#9eb33a" vector-effect="non-scaling-stroke" d="
  M 975.25 781.48
  Q 970.13 775.39 964.75 772.71
  C 951.85 766.29 946.72 783.57 947.78 792.45
  Q 951.14 820.52 948.88 844.99
  Q 948.67 847.23 949.83 847.09"
/>
<path stroke="#bdc971" vector-effect="non-scaling-stroke" d="
  M 468.26 909.12
  C 548.98 966.77 650.49 983.70 747.50 968.27
  C 846.08 952.59 921.18 886.14 923.59 781.44
  C 926.83 640.38 814.97 536.29 697.84 480.13
  Q 693.20 477.91 688.27 476.59"
/>
<path stroke="#ffb18b" vector-effect="non-scaling-stroke" d="
  M 480.39 889.30
  Q 480.65 889.12 480.94 889.29
  C 555.01 933.08 645.06 957.16 730.94 941.94
  C 771.60 934.73 811.82 915.69 841.10 886.21
  C 929.18 797.54 877.90 659.34 797.53 587.33
  C 761.21 554.78 720.79 525.45 676.61 504.58"
/>
<path stroke="#974e52" vector-effect="non-scaling-stroke" d="
  M 688.46 648.01
  C 683.68 654.67 678.16 665.69 691.38 667.60
  Q 707.93 669.99 722.55 661.79
  C 730.35 657.43 734.81 649.68 729.92 641.01
  C 720.63 624.55 696.65 636.59 688.46 648.01"
/>
<path stroke="#974e52" vector-effect="non-scaling-stroke" d="
  M 702.97 732.70
  C 713.40 742.44 726.59 745.76 740.30 741.66
  C 748.70 739.14 756.19 731.02 751.19 722.32
  Q 749.62 719.58 745.99 717.68
  Q 727.07 707.79 707.87 717.74
  C 702.12 720.71 696.26 726.44 702.97 732.70"
/>
<path stroke="#974e52" vector-effect="non-scaling-stroke" d="
  M 684.44 815.81
  C 694.48 825.14 717.48 827.65 718.06 808.11
  C 718.16 804.89 716.52 803.03 714.51 800.74
  Q 700.90 785.29 680.23 784.98
  C 673.97 784.88 670.11 788.31 671.85 794.83
  Q 675.13 807.17 684.44 815.81"
/>
<path stroke="#974e52" vector-effect="non-scaling-stroke" d="
  M 606.93 824.17
  C 600.53 838.85 606.31 860.84 624.75 862.97
  C 635.69 864.24 646.19 855.24 641.25 843.72
  Q 633.33 825.24 613.80 820.43
  C 610.61 819.65 608.24 821.16 606.93 824.17"
/>
</g>
<path fill="#000000" d="
  M 374.01 611.96
  Q 373.59 612.04 372.85 612.61
  Q 318.15 655.06 264.25 698.49
  C 245.24 713.81 229.96 714.73 212.06 697.43
  Q 144.26 631.87 76.78 565.97
  C 68.42 557.79 57.58 548.74 52.84 540.29
  C 42.94 522.61 53.56 503.82 66.60 491.59
  Q 152.69 410.88 238.76 330.15
  C 260.58 309.69 284.08 291.76 309.61 276.14
  C 367.55 240.70 428.56 211.61 491.74 184.98
  C 499.60 181.66 507.36 178.54 515.44 177.54
  C 537.48 174.82 561.01 184.57 582.02 190.92
  Q 717.88 231.98 854.13 194.98
  Q 860.93 193.13 873.31 189.30
  C 890.67 183.94 908.46 177.22 926.25 176.76
  C 940.31 176.39 953.03 183.09 966.45 188.85
  C 1030.68 216.41 1096.71 247.75 1154.95 284.03
  C 1176.38 297.38 1196.26 314.05 1216.06 332.40
  Q 1303.22 413.21 1388.90 495.60
  Q 1392.13 498.71 1396.13 505.13
  Q 1407.82 523.85 1396.03 542.45
  Q 1393.42 546.58 1383.27 556.77
  Q 1313.45 626.91 1242.41 695.82
  Q 1233.67 704.30 1228.92 706.76
  C 1213.92 714.55 1200.75 708.45 1188.57 698.17
  Q 1138.96 656.35 1087.69 616.59
  Q 1082.76 612.77 1077.77 609.64
  A 0.92 0.91 15.5 0 0 1076.37 610.43
  Q 1081.77 917.91 1087.71 1224.06
  C 1087.88 1233.16 1088.10 1242.61 1086.98 1251.40
  C 1084.09 1274.03 1066.09 1282.87 1044.82 1282.72
  C 1032.87 1282.63 1019.46 1282.98 1008.97 1282.99
  Q 711.24 1283.02 413.50 1282.93
  C 404.73 1282.93 394.80 1282.94 387.01 1280.37
  C 369.21 1274.50 363.22 1259.20 363.25 1240.82
  Q 363.30 1213.25 363.73 1185.68
  Q 368.13 899.60 374.81 612.64
  Q 374.83 611.80 374.01 611.96
  Z
  M 543.10 232.44
  C 575.86 296.03 639.65 334.23 710.26 338.19
  C 782.80 342.27 851.87 315.46 894.18 255.09
  C 900.08 246.68 904.44 239.73 907.88 230.94
  A 0.87 0.87 0.0 0 0 906.76 229.81
  C 807.90 267.98 702.04 275.21 599.40 247.93
  Q 571.90 240.62 544.75 230.58
  A 1.33 1.33 0.0 0 0 543.10 232.44
  Z
  M 688.27 476.59
  L 676.61 504.58
  Q 642.42 577.41 593.31 670.56
  Q 569.13 716.44 480.39 889.30
  L 468.26 909.12
  C 460.16 918.06 456.25 929.68 467.71 938.08
  Q 477.72 945.41 489.70 951.11
  Q 510.80 961.15 532.63 969.51
  C 605.43 997.38 685.18 1003.37 761.68 989.87
  C 845.41 975.08 912.24 922.96 949.83 847.09
  Q 967.24 815.55 975.25 781.48
  L 980.92 755.56
  Q 988.43 713.73 986.24 671.94
  Q 985.13 639.99 978.08 609.95
  Q 972.21 581.53 959.34 556.29
  Q 912.65 473.61 818.43 457.17
  C 784.75 451.30 749.87 449.32 716.00 454.69
  C 702.99 456.75 687.75 459.97 688.27 476.59
  Z"
/>
<path fill="#f1f0f0" d="
  M 710.26 338.19
  C 639.65 334.23 575.86 296.03 543.10 232.44
  A 1.33 1.33 0.0 0 1 544.75 230.58
  Q 571.90 240.62 599.40 247.93
  C 702.04 275.21 807.90 267.98 906.76 229.81
  A 0.87 0.87 0.0 0 1 907.88 230.94
  C 904.44 239.73 900.08 246.68 894.18 255.09
  C 851.87 315.46 782.80 342.27 710.26 338.19
  Z"
/>
<path fill="#7a9c41" d="
  M 959.34 556.29
  Q 940.51 556.70 932.86 539.84
  C 930.97 535.68 930.00 529.47 928.10 525.45
  C 921.59 511.66 907.75 507.41 893.50 506.26
  C 884.80 505.56 877.60 504.55 870.75 500.23
  C 864.55 496.32 857.28 488.41 852.55 484.21
  Q 833.86 467.65 809.33 476.27
  C 805.66 477.56 801.15 480.50 796.96 480.76
  C 782.21 481.68 774.12 468.12 757.92 472.83
  A 1.64 1.64 0.0 0 0 756.98 475.26
  Q 770.36 497.29 795.47 502.81
  C 805.32 504.98 813.38 501.59 822.57 499.39
  C 840.10 495.18 842.97 511.12 852.85 520.21
  Q 865.77 532.08 884.00 532.58
  Q 891.57 532.78 899.06 533.65
  C 916.34 535.65 909.94 552.98 913.00 564.64
  C 916.11 576.47 925.53 585.82 936.64 590.44
  Q 937.69 590.88 948.20 593.80
  Q 964.63 598.36 978.08 609.95
  Q 985.13 639.99 986.24 671.94
  C 972.12 668.78 953.17 658.54 951.98 641.81
  C 951.06 628.85 945.89 614.31 936.36 605.14
  C 929.69 598.72 920.31 594.70 910.43 590.84
  C 902.80 587.86 897.71 584.96 894.08 577.44
  C 892.26 573.67 891.51 568.22 890.24 564.24
  Q 885.72 550.06 873.95 542.81
  C 862.24 535.59 841.60 530.50 828.64 538.49
  Q 828.22 538.75 828.06 539.23
  C 825.77 545.97 830.32 549.40 836.06 551.17
  C 844.11 553.66 854.88 558.10 860.49 562.83
  C 869.12 570.11 868.45 578.38 869.47 588.73
  C 873.30 627.64 922.06 609.56 925.64 638.68
  C 926.53 645.98 922.89 654.72 922.87 661.41
  C 922.82 678.91 936.95 687.25 949.54 696.02
  C 958.94 702.56 957.18 712.25 956.17 722.83
  C 954.65 738.75 966.13 751.68 980.92 755.56
  L 975.25 781.48
  Q 970.13 775.39 964.75 772.71
  C 951.85 766.29 946.72 783.57 947.78 792.45
  Q 951.14 820.52 948.88 844.99
  Q 948.67 847.23 949.83 847.09
  C 912.24 922.96 845.41 975.08 761.68 989.87
  C 685.18 1003.37 605.43 997.38 532.63 969.51
  Q 510.80 961.15 489.70 951.11
  Q 477.72 945.41 467.71 938.08
  C 456.25 929.68 460.16 918.06 468.26 909.12
  C 548.98 966.77 650.49 983.70 747.50 968.27
  C 846.08 952.59 921.18 886.14 923.59 781.44
  C 926.83 640.38 814.97 536.29 697.84 480.13
  Q 693.20 477.91 688.27 476.59
  C 687.75 459.97 702.99 456.75 716.00 454.69
  C 749.87 449.32 784.75 451.30 818.43 457.17
  Q 912.65 473.61 959.34 556.29
  Z"
/>
<path fill="#c1ca32" d="
  M 959.34 556.29
  Q 972.21 581.53 978.08 609.95
  Q 964.63 598.36 948.20 593.80
  Q 937.69 590.88 936.64 590.44
  C 925.53 585.82 916.11 576.47 913.00 564.64
  C 909.94 552.98 916.34 535.65 899.06 533.65
  Q 891.57 532.78 884.00 532.58
  Q 865.77 532.08 852.85 520.21
  C 842.97 511.12 840.10 495.18 822.57 499.39
  C 813.38 501.59 805.32 504.98 795.47 502.81
  Q 770.36 497.29 756.98 475.26
  A 1.64 1.64 0.0 0 1 757.92 472.83
  C 774.12 468.12 782.21 481.68 796.96 480.76
  C 801.15 480.50 805.66 477.56 809.33 476.27
  Q 833.86 467.65 852.55 484.21
  C 857.28 488.41 864.55 496.32 870.75 500.23
  C 877.60 504.55 884.80 505.56 893.50 506.26
  C 907.75 507.41 921.59 511.66 928.10 525.45
  C 930.00 529.47 930.97 535.68 932.86 539.84
  Q 940.51 556.70 959.34 556.29
  Z"
/>
<path fill="#fff6a0" d="
  M 688.27 476.59
  Q 693.20 477.91 697.84 480.13
  C 814.97 536.29 926.83 640.38 923.59 781.44
  C 921.18 886.14 846.08 952.59 747.50 968.27
  C 650.49 983.70 548.98 966.77 468.26 909.12
  L 480.39 889.30
  Q 480.65 889.12 480.94 889.29
  C 555.01 933.08 645.06 957.16 730.94 941.94
  C 771.60 934.73 811.82 915.69 841.10 886.21
  C 929.18 797.54 877.90 659.34 797.53 587.33
  C 761.21 554.78 720.79 525.45 676.61 504.58
  L 688.27 476.59
  Z"
/>
<path fill="#ff6c75" d="
  M 676.61 504.58
  C 720.79 525.45 761.21 554.78 797.53 587.33
  C 877.90 659.34 929.18 797.54 841.10 886.21
  C 811.82 915.69 771.60 934.73 730.94 941.94
  C 645.06 957.16 555.01 933.08 480.94 889.29
  Q 480.65 889.12 480.39 889.30
  Q 569.13 716.44 593.31 670.56
  Q 642.42 577.41 676.61 504.58
  Z
  M 688.46 648.01
  C 683.68 654.67 678.16 665.69 691.38 667.60
  Q 707.93 669.99 722.55 661.79
  C 730.35 657.43 734.81 649.68 729.92 641.01
  C 720.63 624.55 696.65 636.59 688.46 648.01
  Z
  M 702.97 732.70
  C 713.40 742.44 726.59 745.76 740.30 741.66
  C 748.70 739.14 756.19 731.02 751.19 722.32
  Q 749.62 719.58 745.99 717.68
  Q 727.07 707.79 707.87 717.74
  C 702.12 720.71 696.26 726.44 702.97 732.70
  Z
  M 684.44 815.81
  C 694.48 825.14 717.48 827.65 718.06 808.11
  C 718.16 804.89 716.52 803.03 714.51 800.74
  Q 700.90 785.29 680.23 784.98
  C 673.97 784.88 670.11 788.31 671.85 794.83
  Q 675.13 807.17 684.44 815.81
  Z
  M 606.93 824.17
  C 600.53 838.85 606.31 860.84 624.75 862.97
  C 635.69 864.24 646.19 855.24 641.25 843.72
  Q 633.33 825.24 613.80 820.43
  C 610.61 819.65 608.24 821.16 606.93 824.17
  Z"
/>
<path fill="#c1ca32" d="
  M 986.24 671.94
  Q 988.43 713.73 980.92 755.56
  C 966.13 751.68 954.65 738.75 956.17 722.83
  C 957.18 712.25 958.94 702.56 949.54 696.02
  C 936.95 687.25 922.82 678.91 922.87 661.41
  C 922.89 654.72 926.53 645.98 925.64 638.68
  C 922.06 609.56 873.30 627.64 869.47 588.73
  C 868.45 578.38 869.12 570.11 860.49 562.83
  C 854.88 558.10 844.11 553.66 836.06 551.17
  C 830.32 549.40 825.77 545.97 828.06 539.23
  Q 828.22 538.75 828.64 538.49
  C 841.60 530.50 862.24 535.59 873.95 542.81
  Q 885.72 550.06 890.24 564.24
  C 891.51 568.22 892.26 573.67 894.08 577.44
  C 897.71 584.96 902.80 587.86 910.43 590.84
  C 920.31 594.70 929.69 598.72 936.36 605.14
  C 945.89 614.31 951.06 628.85 951.98 641.81
  C 953.17 658.54 972.12 668.78 986.24 671.94
  Z"
/>
<path fill="#2f2f2f" d="
  M 691.38 667.60
  C 678.16 665.69 683.68 654.67 688.46 648.01
  C 696.65 636.59 720.63 624.55 729.92 641.01
  C 734.81 649.68 730.35 657.43 722.55 661.79
  Q 707.93 669.99 691.38 667.60
  Z"
/>
<path fill="#2f2f2f" d="
  M 702.97 732.70
  C 696.26 726.44 702.12 720.71 707.87 717.74
  Q 727.07 707.79 745.99 717.68
  Q 749.62 719.58 751.19 722.32
  C 756.19 731.02 748.70 739.14 740.30 741.66
  C 726.59 745.76 713.40 742.44 702.97 732.70
  Z"
/>
<path fill="#c1ca32" d="
  M 975.25 781.48
  Q 967.24 815.55 949.83 847.09
  Q 948.67 847.23 948.88 844.99
  Q 951.14 820.52 947.78 792.45
  C 946.72 783.57 951.85 766.29 964.75 772.71
  Q 970.13 775.39 975.25 781.48
  Z"
/>
<path fill="#2f2f2f" d="
  M 684.44 815.81
  Q 675.13 807.17 671.85 794.83
  C 670.11 788.31 673.97 784.88 680.23 784.98
  Q 700.90 785.29 714.51 800.74
  C 716.52 803.03 718.16 804.89 718.06 808.11
  C 717.48 827.65 694.48 825.14 684.44 815.81
  Z"
/>
<path fill="#2f2f2f" d="
  M 624.75 862.97
  C 606.31 860.84 600.53 838.85 606.93 824.17
  C 608.24 821.16 610.61 819.65 613.80 820.43
  Q 633.33 825.24 641.25 843.72
  C 646.19 855.24 635.69 864.24 624.75 862.97
  Z"
/>
</svg>
